<svg width="90" height="62" viewBox="0 0 90 62" fill="none" xmlns="http://www.w3.org/2000/svg">
<path d="M58.7139 20.4813V61.6629L89.8464 40.7257V14.154L58.7139 20.4813Z" fill="#1E3A6D"/>
<path d="M0 11.849V15.6452L30.5057 10.8137L58.7127 17.2552L89.8453 11.273V7.47683L67.4894 0L0 11.849Z" fill="#FF6B35"/>
<path d="M0.057373 53.6374V18.7393H6.04296V33.1472H17.8328V18.7393H23.8183V53.6374H17.8328V39.1297H6.04296V53.6374H0.057373Z" fill="#1E3A6D"/>
<path d="M41.8771 54.3353C37.9472 54.3353 34.8335 53.1388 32.536 50.7458C30.2385 48.3196 29.0897 44.863 29.0897 40.3761V32.0005C29.0897 27.5136 30.2385 24.0737 32.536 21.6807C34.8335 19.2544 37.9472 18.0413 41.8771 18.0413C45.7768 18.0413 48.7847 19.2212 50.9008 21.581C53.0472 23.9075 54.1204 27.1148 54.1204 31.2029V31.502H48.2255V31.0034C48.2255 28.9428 47.6964 27.2477 46.6384 25.9183C45.6106 24.5888 44.0235 23.9241 41.8771 23.9241C39.761 23.9241 38.0983 24.6387 36.8891 26.0679C35.6799 27.497 35.0753 29.4413 35.0753 31.9008V40.4758C35.0753 42.902 35.6799 44.8464 36.8891 46.3088C38.0983 47.7379 39.761 48.4525 41.8771 48.4525C44.0235 48.4525 45.6106 47.7878 46.6384 46.4583C47.6964 45.0956 48.2255 43.4006 48.2255 41.3732V40.4758H54.1204V41.1738C54.1204 45.2618 53.0472 48.4857 50.9008 50.8455C48.7847 53.1721 45.7768 54.3353 41.8771 54.3353Z" fill="#1E3A6D"/>
</svg>
