<svg width="13" height="14" viewBox="0 0 13 14" fill="none" xmlns="http://www.w3.org/2000/svg">
<rect y="0.5" width="13" height="13" rx="6.5" fill="#005EB8"/>
<path d="M5.36254 9.45008C5.30659 9.45008 5.25451 9.44117 5.2063 9.42329C5.15808 9.40542 5.11225 9.37477 5.0688 9.33132L3.1304 7.39292C3.06315 7.3257 3.0307 7.24296 3.03308 7.14472C3.03546 7.04652 3.07028 6.96378 3.13755 6.89651C3.20481 6.82928 3.28635 6.79562 3.38219 6.79562C3.47802 6.79562 3.55956 6.82928 3.62682 6.89651L5.36254 8.63224L9.37328 4.62153C9.44051 4.55426 9.52324 4.52063 9.62149 4.52063C9.71968 4.52063 9.80242 4.55426 9.86969 4.62153C9.93692 4.68879 9.97058 4.77153 9.97058 4.86974C9.97058 4.96795 9.93692 5.05069 9.86969 5.11795L5.6563 9.33132C5.61284 9.37477 5.567 9.40542 5.51878 9.42329C5.47058 9.44117 5.4185 9.45008 5.36254 9.45008Z" fill="white"/>
</svg>
