<svg width="53" height="52" viewBox="0 0 53 52" fill="none" xmlns="http://www.w3.org/2000/svg">
<mask id="mask0_20_4171" style="mask-type:alpha" maskUnits="userSpaceOnUse" x="0" y="0" width="53" height="52">
<rect x="0.5" width="52" height="52" fill="#D9D9D9"/>
</mask>
<g mask="url(#mask0_20_4171)">
<path d="M14.9998 48.75V32.3044L7.77075 20.5833L17.1248 5.41663H35.8751L45.2292 20.5833L38.0001 32.3044V48.75L26.5 44.8543L14.9998 48.75ZM18.2498 44.1539L26.5 41.4082L34.7501 44.1539V35.75H18.2498V44.1539ZM18.9372 8.66663L11.5705 20.5833L18.9372 32.5H34.0627L41.4294 20.5833L34.0627 8.66663H18.9372ZM24.225 28.6417L17.3041 21.775L19.6208 19.4582L24.225 24.0624L33.3791 14.8541L35.6958 17.1166L24.225 28.6417Z" fill="#FF6B35"/>
</g>
</svg>
