<svg width="53" height="52" viewBox="0 0 53 52" fill="none" xmlns="http://www.w3.org/2000/svg">
<mask id="mask0_20_4172" style="mask-type:alpha" maskUnits="userSpaceOnUse" x="0" y="0" width="53" height="52">
<rect x="0.5" width="52" height="52" fill="#D9D9D9"/>
</mask>
<g mask="url(#mask0_20_4172)">
<path d="M3.85037 28.9623C3.11695 27.6345 2.55579 26.2852 2.16687 24.9144C1.77795 23.5436 1.5835 22.1721 1.5835 20.7999C1.5835 17.0888 2.85858 13.9583 5.40875 11.4085C7.95855 8.85834 11.089 7.58325 14.8002 7.58325C17.0336 7.58325 19.1691 8.10686 21.2065 9.15409C23.2438 10.2013 25.0084 11.6848 26.5002 13.6044C27.9919 11.6848 29.7565 10.2013 31.7939 9.15409C33.8313 8.10686 35.9667 7.58325 38.2002 7.58325C41.9113 7.58325 45.0418 8.85834 47.5916 11.4085C50.1417 13.9583 51.4168 17.0888 51.4168 20.7999C51.4168 22.1443 51.2224 23.4951 50.8335 24.8521C50.4445 26.2088 49.8834 27.572 49.15 28.9417C48.8387 28.4495 48.4705 28.0091 48.0455 27.6206C47.6208 27.232 47.1445 26.9168 46.6166 26.6748C47.1221 25.65 47.5069 24.6535 47.7709 23.6854C48.0348 22.7172 48.1668 21.7554 48.1668 20.7999C48.1668 17.997 47.2065 15.6351 45.2857 13.7144C43.365 11.7936 41.0031 10.8333 38.2002 10.8333C35.6225 10.8333 33.4857 11.5708 31.7895 13.046C30.0938 14.5207 28.3306 16.3832 26.5002 18.6333C24.6697 16.3611 22.9066 14.4931 21.2108 13.0292C19.5146 11.5652 17.3778 10.8333 14.8002 10.8333C11.9972 10.8333 9.63537 11.7936 7.71462 13.7144C5.79387 15.6351 4.8335 17.997 4.8335 20.7999C4.8335 21.7832 4.96548 22.7624 5.22945 23.7374C5.49343 24.7124 5.87115 25.6986 6.36262 26.696C5.83504 26.9513 5.36288 27.2699 4.94616 27.652C4.52944 28.0341 4.16418 28.4708 3.85037 28.9623ZM1.5835 46.625V43.9833C1.5835 42.5193 2.33876 41.3298 3.84929 40.4148C5.35982 39.4993 7.32011 39.0416 9.73016 39.0416C10.1714 39.0416 10.5948 39.0541 11.0004 39.079C11.4059 39.1039 11.7934 39.1525 12.1628 39.2247C11.7544 39.8639 11.4445 40.5438 11.2333 41.2646C11.0224 41.9858 10.917 42.7538 10.917 43.5689V46.625H1.5835ZM14.5835 46.625V43.6458C14.5835 41.5763 15.6847 39.9166 17.8871 38.6668C20.0895 37.4166 22.9625 36.7915 26.5061 36.7915C30.0826 36.7915 32.9619 37.4166 35.1441 38.6668C37.3259 39.9166 38.4168 41.5763 38.4168 43.6458V46.625H14.5835ZM42.0834 46.625V43.5689C42.0834 42.7538 41.9869 41.9858 41.7941 41.2646C41.6009 40.5438 41.3113 39.8639 40.9253 39.2247C41.2947 39.1525 41.6778 39.1039 42.0747 39.079C42.4719 39.0541 42.8776 39.0416 43.2918 39.0416C45.7293 39.0416 47.6929 39.4993 49.1824 40.4148C50.672 41.3298 51.4168 42.5193 51.4168 43.9833V46.625H42.0834ZM26.4975 40.0415C24.2463 40.0415 22.3118 40.3402 20.694 40.9375C19.0759 41.5347 18.178 42.2709 18.0003 43.1458V43.375H35.0336V43.1458C34.8335 42.2709 33.9335 41.5347 32.3334 40.9375C30.7336 40.3402 28.7883 40.0415 26.4975 40.0415ZM9.72962 36.9373C8.70984 36.9373 7.83686 36.5742 7.11066 35.848C6.38411 35.1218 6.02083 34.2488 6.02083 33.229C6.02083 32.1959 6.38411 31.3231 7.11066 30.6106C7.83686 29.8981 8.70984 29.5419 9.72962 29.5419C10.7628 29.5419 11.639 29.8981 12.3583 30.6106C13.078 31.3231 13.4379 32.1959 13.4379 33.229C13.4379 34.2488 13.078 35.1218 12.3583 35.848C11.639 36.5742 10.7628 36.9373 9.72962 36.9373ZM43.2918 36.9373C42.2807 36.9373 41.4099 36.5742 40.6794 35.848C39.9488 35.1218 39.5836 34.2488 39.5836 33.229C39.5836 32.1959 39.9488 31.3231 40.6794 30.6106C41.4099 29.8981 42.282 29.5419 43.2956 29.5419C44.3403 29.5419 45.2189 29.8981 45.9314 30.6106C46.6438 31.3231 47.0001 32.1959 47.0001 33.229C47.0001 34.2488 46.6447 35.1218 45.9341 35.848C45.2234 36.5742 44.3427 36.9373 43.2918 36.9373ZM26.5077 35.1665C24.947 35.1665 23.6181 34.6196 22.5211 33.5258C21.424 32.4324 20.8755 31.1044 20.8755 29.5419C20.8755 27.9479 21.4222 26.612 22.5157 25.5341C23.6095 24.4558 24.9376 23.9167 26.5002 23.9167C28.0937 23.9167 29.4297 24.4551 30.508 25.5319C31.5859 26.6084 32.1248 27.9425 32.1248 29.5343C32.1248 31.0947 31.5866 32.4235 30.5101 33.521C29.4333 34.618 28.0992 35.1665 26.5077 35.1665ZM26.5002 27.1667C25.8447 27.1667 25.285 27.3944 24.821 27.8497C24.357 28.3047 24.125 28.8688 24.125 29.5419C24.125 30.1973 24.357 30.757 24.821 31.221C25.285 31.6847 25.8482 31.9165 26.5105 31.9165C27.1731 31.9165 27.7328 31.6847 28.1896 31.221C28.6468 30.757 28.8754 30.1937 28.8754 29.531C28.8754 28.8688 28.6477 28.309 28.1923 27.8519C27.737 27.3951 27.1729 27.1667 26.5002 27.1667Z" fill="#FF6B35"/>
</g>
</svg>
