<svg width="21" height="21" viewBox="0 0 21 21" fill="none" xmlns="http://www.w3.org/2000/svg">
<mask id="mask0_10_99" style="mask-type:alpha" maskUnits="userSpaceOnUse" x="0" y="0" width="21" height="21">
<g clip-path="url(#clip0_10_99)">
<path d="M17.8701 3.95001H2.87012C2.70436 3.95001 2.54539 4.01586 2.42818 4.13307C2.31097 4.25028 2.24512 4.40925 2.24512 4.57501V15.2C2.24512 15.5315 2.37681 15.8495 2.61123 16.0839C2.84565 16.3183 3.1636 16.45 3.49512 16.45H17.2451C17.5766 16.45 17.8946 16.3183 18.129 16.0839C18.3634 15.8495 18.4951 15.5315 18.4951 15.2V4.57501C18.4951 4.40925 18.4293 4.25028 18.3121 4.13307C18.1948 4.01586 18.0359 3.95001 17.8701 3.95001ZM10.3701 10.6024L4.47715 5.20001H16.2631L10.3701 10.6024ZM8.08184 10.2L3.49512 14.4039V5.99611L8.08184 10.2ZM9.00684 11.0477L9.94434 11.9109C10.0596 12.0168 10.2105 12.0755 10.367 12.0755C10.5235 12.0755 10.6743 12.0168 10.7896 11.9109L11.7271 11.0477L16.2584 15.2H4.47715L9.00684 11.0477ZM12.6584 10.2L17.2451 5.99532V14.4047L12.6584 10.2Z" fill="black"/>
</g>
</mask>
<g mask="url(#mask0_10_99)">
<rect x="0.370117" y="0.200012" width="20" height="20" fill="black"/>
</g>
<defs>
<clipPath id="clip0_10_99">
<rect width="20" height="20" fill="white" transform="translate(0.370117 0.200012)"/>
</clipPath>
</defs>
</svg>
