<svg width="53" height="52" viewBox="0 0 53 52" fill="none" xmlns="http://www.w3.org/2000/svg">
<mask id="mask0_17_1480" style="mask-type:alpha" maskUnits="userSpaceOnUse" x="0" y="0" width="53" height="52">
<rect x="0.5" width="52" height="52" fill="#D9D9D9"/>
</mask>
<g mask="url(#mask0_17_1480)">
<path d="M25.4174 36.2923C27.9752 36.2923 30.1494 35.3971 31.9402 33.6067C33.7305 31.8159 34.6257 29.6417 34.6257 27.0839V17.8756H25.4174C22.8597 17.8756 20.6854 18.7708 18.8947 20.5612C17.1043 22.3519 16.2091 24.5262 16.2091 27.0839C16.2091 28.0521 16.3425 28.983 16.6094 29.8768C16.8759 30.7705 17.2966 31.6007 17.8714 32.3674L16.6922 33.5254C16.3784 33.8396 16.2215 34.2202 16.2215 34.6673C16.2215 35.1143 16.3784 35.4949 16.6922 35.8091C17.0064 36.1229 17.387 36.2798 17.8341 36.2798C18.2811 36.2798 18.6617 36.1229 18.9759 35.8091L20.134 34.6299C20.9147 35.1911 21.7523 35.6083 22.6468 35.8817C23.5413 36.1554 24.4648 36.2923 25.4174 36.2923ZM25.4174 33.0423C24.9118 33.0423 24.4168 32.9784 23.9322 32.8505C23.4472 32.7227 22.9868 32.5282 22.5509 32.2672L27.6426 27.1424C27.9564 26.8283 28.1133 26.4477 28.1133 26.0006C28.1133 25.5536 27.9564 25.1729 27.6426 24.8588C27.3284 24.545 26.9478 24.3881 26.5007 24.3881C26.0537 24.3881 25.6731 24.545 25.3589 24.8588L20.2342 29.9504C19.9731 29.5146 19.7787 29.0542 19.6508 28.5692C19.523 28.0846 19.4591 27.5895 19.4591 27.0839C19.4591 25.4156 20.035 24.0055 21.187 22.8535C22.3389 21.7016 23.7491 21.1256 25.4174 21.1256H31.3757V27.0839C31.3757 28.7523 30.7998 30.1624 29.6478 31.3144C28.4959 32.4663 27.0857 33.0423 25.4174 33.0423ZM26.5007 48.2924L19.5094 42.8204L10.7447 41.7566L9.6809 32.9919L4.20898 26.0006L9.6809 19.0093L10.7447 10.2446L19.5094 9.18078L26.5007 3.70886L33.492 9.18078L42.2567 10.2446L43.3206 19.0093L48.7925 26.0006L43.3206 32.9919L42.2567 41.7566L33.492 42.8204L26.5007 48.2924ZM26.5007 44.1421L32.1899 39.7411L39.3827 38.8284L40.2412 31.6897L44.6422 26.0006L40.2412 20.3115L39.3285 13.1729L32.1899 12.2602L26.5007 7.85911L20.8116 12.2602L13.6188 13.1729L12.7603 20.3115L8.35923 26.0006L12.7603 31.6897L13.673 38.8825L20.8116 39.7411L26.5007 44.1421Z" fill="#FF6B35"/>
</g>
</svg>
