<svg width="91" height="63" viewBox="0 0 91 63" fill="none" xmlns="http://www.w3.org/2000/svg">
<path d="M59.3391 21.3515V62.5331L90.4717 41.5959V15.0242L59.3391 21.3515Z" fill="white"/>
<path d="M0.625244 12.7191V16.5153L31.131 11.6838L59.338 18.1253L90.4705 12.1431V8.34695L68.1146 0.870117L0.625244 12.7191Z" fill="white"/>
<path d="M0.682617 54.5075V19.6093H6.6682V34.0173H18.458V19.6093H24.4436V54.5075H18.458V39.9998H6.6682V54.5075H0.682617Z" fill="white"/>
<path d="M42.5024 55.2054C38.5724 55.2054 35.4587 54.0089 33.1612 51.6159C30.8637 49.1896 29.715 45.7331 29.715 41.2462V32.8706C29.715 28.3837 30.8637 24.9438 33.1612 22.5508C35.4587 20.1245 38.5724 18.9114 42.5024 18.9114C46.4021 18.9114 49.41 20.0913 51.5261 22.451C53.6724 24.7776 54.7456 27.9849 54.7456 32.073V32.3721H48.8507V31.8735C48.8507 29.8129 48.3217 28.1178 47.2636 26.7884C46.2358 25.4589 44.6487 24.7942 42.5024 24.7942C40.3862 24.7942 38.7236 25.5088 37.5144 26.9379C36.3052 28.3671 35.7006 30.3114 35.7006 32.7709V41.3459C35.7006 43.7721 36.3052 45.7165 37.5144 47.1789C38.7236 48.608 40.3862 49.3226 42.5024 49.3226C44.6487 49.3226 46.2358 48.6579 47.2636 47.3284C48.3217 45.9657 48.8507 44.2707 48.8507 42.2433V41.3459H54.7456V42.0438C54.7456 46.1319 53.6724 49.3558 51.5261 51.7156C49.41 54.0421 46.4021 55.2054 42.5024 55.2054Z" fill="white"/>
</svg>
