<svg width="24" height="25" viewBox="0 0 24 25" fill="none" xmlns="http://www.w3.org/2000/svg">
<path d="M11.9907 4.38655C14.6608 4.38655 14.9771 4.39672 16.0315 4.44483C17.0065 4.48933 17.536 4.65223 17.8884 4.78914C18.3551 4.97055 18.6883 5.18728 19.0382 5.5372C19.3881 5.88711 19.6049 6.22027 19.7862 6.687C19.9232 7.03942 20.0861 7.56891 20.1306 8.54386C20.1787 9.59836 20.1889 9.91461 20.1889 12.5847C20.1889 15.2548 20.1787 15.5711 20.1306 16.6255C20.0861 17.6005 19.9232 18.13 19.7862 18.4824C19.6049 18.9492 19.3881 19.2823 19.0382 19.6322C18.6883 19.9821 18.3551 20.1989 17.8884 20.3803C17.536 20.5172 17.0065 20.6801 16.0315 20.7246C14.9772 20.7727 14.661 20.7829 11.9907 20.7829C9.32041 20.7829 9.00416 20.7727 7.94986 20.7246C6.97487 20.6801 6.44538 20.5172 6.09301 20.3803C5.62623 20.1989 5.29307 19.9821 4.94316 19.6322C4.59325 19.2823 4.37651 18.9492 4.19515 18.4824C4.0582 18.13 3.89529 17.6005 3.85079 16.6256C3.80268 15.5711 3.79252 15.2548 3.79252 12.5847C3.79252 9.91461 3.80268 9.59836 3.85079 8.5439C3.89529 7.56891 4.0582 7.03942 4.19515 6.687C4.37651 6.22027 4.59325 5.88711 4.94316 5.5372C5.29307 5.18728 5.62623 4.97055 6.09301 4.78914C6.44538 4.65223 6.97487 4.48933 7.94982 4.44483C9.00432 4.39672 9.32057 4.38655 11.9907 4.38655ZM11.9907 2.58472C9.27484 2.58472 8.93434 2.59623 7.86773 2.64489C6.80331 2.69348 6.07641 2.8625 5.4403 3.10972C4.78271 3.36528 4.22504 3.70721 3.66911 4.26314C3.11318 4.81907 2.77124 5.37675 2.51569 6.03434C2.26847 6.67045 2.09944 7.39735 2.05086 8.46177C2.00219 9.52834 1.99072 9.86888 1.99072 12.5847C1.99072 15.3006 2.00219 15.6411 2.05086 16.7077C2.09944 17.7721 2.26847 18.499 2.51569 19.1351C2.77124 19.7926 3.11318 20.3504 3.66911 20.9063C4.22504 21.4622 4.78271 21.8042 5.4403 22.0597C6.07641 22.3069 6.80331 22.476 7.86773 22.5245C8.93434 22.5732 9.27484 22.5847 11.9907 22.5847C14.7065 22.5847 15.0471 22.5732 16.1136 22.5245C17.1781 22.476 17.905 22.3069 18.5411 22.0597C19.1987 21.8042 19.7563 21.4622 20.3123 20.9063C20.8682 20.3504 21.2101 19.7927 21.4657 19.1351C21.7129 18.499 21.8819 17.7721 21.9305 16.7077C21.9792 15.6411 21.9907 15.3006 21.9907 12.5847C21.9907 9.86888 21.9792 9.52834 21.9305 8.46177C21.8819 7.39735 21.7129 6.67045 21.4657 6.03434C21.2101 5.37675 20.8682 4.81907 20.3123 4.26314C19.7563 3.70721 19.1987 3.36528 18.5411 3.10972C17.905 2.8625 17.1781 2.69348 16.1136 2.64489C15.0471 2.59623 14.7065 2.58472 11.9907 2.58472ZM11.9907 7.44958C9.15465 7.44958 6.85555 9.74868 6.85555 12.5847C6.85555 15.4207 9.15465 17.7198 11.9907 17.7198C14.8267 17.7198 17.1258 15.4207 17.1258 12.5847C17.1258 9.74868 14.8267 7.44958 11.9907 7.44958ZM11.9907 15.918C10.1497 15.918 8.65735 14.4256 8.65735 12.5847C8.65735 10.7438 10.1497 9.25138 11.9907 9.25138C13.8316 9.25138 15.324 10.7438 15.324 12.5847C15.324 14.4256 13.8316 15.918 11.9907 15.918ZM18.5287 7.2467C18.5287 7.90945 17.9915 8.44672 17.3287 8.44672C16.666 8.44672 16.1287 7.90945 16.1287 7.2467C16.1287 6.58395 16.666 6.04672 17.3287 6.04672C17.9915 6.04672 18.5287 6.58395 18.5287 7.2467Z" fill="white"/>
</svg>
