<svg width="24" height="25" viewBox="0 0 24 25" fill="none" xmlns="http://www.w3.org/2000/svg">
<path fill-rule="evenodd" clip-rule="evenodd" d="M19.9927 20.5213H16.6773V15.6707C16.6773 14.5139 16.6563 13.0259 14.9546 13.0259C13.2298 13.0259 12.9665 14.2866 12.9665 15.5877V20.5213H9.65454V10.5464H12.833V11.9102H12.8785C13.3206 11.1258 14.402 10.2988 16.015 10.2988C19.3723 10.2988 19.9927 12.3642 19.9927 15.0508V20.5213ZM5.91434 9.18372C4.84902 9.18372 3.99048 8.37833 3.99048 7.38548C3.99048 6.39328 4.84902 5.58789 5.91434 5.58789C6.97476 5.58789 7.8361 6.39328 7.8361 7.38548C7.8361 8.37833 6.97476 9.18372 5.91434 9.18372ZM7.575 20.5198H4.2561V10.5449H7.575V20.5198Z" fill="white"/>
</svg>
