<svg width="21" height="20" viewBox="0 0 21 20" fill="none" xmlns="http://www.w3.org/2000/svg">
<mask id="mask0_10_91" style="mask-type:alpha" maskUnits="userSpaceOnUse" x="0" y="0" width="21" height="20">
<g clip-path="url(#clip0_10_91)">
<path d="M17.7428 12.3797L14.0623 10.7305L14.0522 10.7258C13.8611 10.6441 13.6527 10.6113 13.4457 10.6304C13.2388 10.6495 13.0399 10.7198 12.867 10.8352C12.8466 10.8486 12.8271 10.8632 12.8084 10.8789L10.9068 12.5C9.70216 11.9148 8.45841 10.6805 7.87325 9.4914L9.49669 7.56093C9.51231 7.5414 9.52716 7.52187 9.54122 7.50078C9.65405 7.32836 9.72251 7.13071 9.7405 6.92544C9.7585 6.72017 9.72546 6.51363 9.64434 6.32421V6.31484L7.99044 2.62812C7.8832 2.38067 7.69882 2.17454 7.4648 2.04049C7.23079 1.90645 6.9597 1.85168 6.692 1.88437C5.63338 2.02367 4.66167 2.54356 3.95835 3.34694C3.25504 4.15032 2.86821 5.18225 2.87012 6.24999C2.87012 12.4531 7.917 17.5 14.1201 17.5C15.1879 17.5019 16.2198 17.1151 17.0232 16.4118C17.8266 15.7084 18.3464 14.7367 18.4858 13.6781C18.5185 13.4105 18.4638 13.1395 18.3299 12.9055C18.196 12.6715 17.9901 12.487 17.7428 12.3797ZM14.1201 16.25C11.4688 16.2471 8.92699 15.1926 7.05225 13.3179C5.17752 11.4431 4.12302 8.90127 4.12012 6.24999C4.11719 5.4871 4.39204 4.74921 4.89336 4.17414C5.39467 3.59907 6.08817 3.22614 6.84434 3.12499C6.84403 3.12811 6.84403 3.13125 6.84434 3.13437L8.48497 6.80624L6.87012 8.73906C6.8537 8.75789 6.83881 8.77801 6.82559 8.79921C6.70803 8.97962 6.63906 9.18733 6.62537 9.40223C6.61168 9.61713 6.65374 9.83191 6.74747 10.0258C7.45528 11.4734 8.91387 12.9211 10.3772 13.6281C10.5724 13.721 10.7885 13.7616 11.0041 13.746C11.2198 13.7304 11.4277 13.6591 11.6076 13.5391C11.6277 13.5256 11.647 13.511 11.6654 13.4953L13.5647 11.875L17.2365 13.5195H17.2451C17.1452 14.2768 16.7728 14.9717 16.1977 15.4742C15.6225 15.9768 14.8839 16.2526 14.1201 16.25Z" fill="black"/>
</g>
</mask>
<g mask="url(#mask0_10_91)">
<rect x="0.370117" width="20" height="20" fill="black"/>
</g>
<defs>
<clipPath id="clip0_10_91">
<rect width="20" height="20" fill="white" transform="translate(0.370117)"/>
</clipPath>
</defs>
</svg>
