<svg width="24" height="25" viewBox="0 0 24 25" fill="none" xmlns="http://www.w3.org/2000/svg">
<path fill-rule="evenodd" clip-rule="evenodd" d="M19.9905 8.00774C19.402 8.24862 18.769 8.41151 18.105 8.48488C18.783 8.10972 19.3035 7.51629 19.5485 6.80889C18.9145 7.1559 18.2115 7.40785 17.464 7.54398C16.865 6.95517 16.012 6.5874 15.068 6.5874C13.255 6.5874 11.7855 7.9436 11.7855 9.61681C11.7855 9.854 11.8145 10.0852 11.8705 10.3071C9.14198 10.1807 6.72348 8.97448 5.10448 7.1416C4.82198 7.5892 4.65998 8.10972 4.65998 8.66484C4.65998 9.71556 5.23948 10.6431 6.11998 11.1862C5.58198 11.1705 5.07598 11.0344 4.63348 10.8073C4.63298 10.8203 4.63298 10.8327 4.63298 10.8456C4.63298 12.3135 5.76448 13.5377 7.26648 13.816C6.99098 13.8852 6.70098 13.9221 6.40148 13.9221C6.18998 13.9221 5.98448 13.9032 5.78398 13.8681C6.20148 15.0716 7.41398 15.9474 8.85048 15.9719C7.72698 16.7845 6.31148 17.2686 4.77348 17.2686C4.50848 17.2686 4.24748 17.2542 3.99048 17.2266C5.44298 18.0858 7.16848 18.5874 9.02248 18.5874C15.0605 18.5874 18.362 13.971 18.362 9.96798C18.362 9.83646 18.359 9.70587 18.3525 9.57575C18.994 9.1489 19.5505 8.61547 19.9905 8.00774Z" fill="white"/>
</svg>
