<svg width="24" height="25" viewBox="0 0 24 25" fill="none" xmlns="http://www.w3.org/2000/svg">
<g clip-path="url(#clip0_10_111)">
<path d="M3.70312 20.9438L4.90781 16.5422C3.88486 14.7646 3.53936 12.6767 3.93514 10.6641C4.33092 8.65153 5.44123 6.85022 7.061 5.59291C8.68077 4.33561 10.7006 3.70725 12.7473 3.82391C14.794 3.94056 16.7294 4.79434 18.196 6.22755C19.6626 7.66076 20.5613 9.57657 20.7261 11.6211C20.8909 13.6657 20.3107 15.7008 19.0926 17.3507C17.8745 19.0005 16.1008 20.1536 14.0993 20.5969C12.0977 21.0402 10.0033 20.7439 8.20312 19.7625M5.74219 18.9281L8.41406 18.225C9.88448 19.1803 11.6578 19.5542 13.3887 19.2738C15.1196 18.9934 16.6842 18.0789 17.7779 16.7083C18.8716 15.3377 19.416 13.6091 19.3052 11.8591C19.1944 10.1092 18.4363 8.46305 17.1785 7.24134C15.9207 6.01963 14.2532 5.30977 12.5007 5.24996C10.7483 5.19016 9.03627 5.78471 7.69809 6.91783C6.35992 8.05095 5.49134 9.64154 5.2615 11.3799C5.03165 13.1182 5.45699 14.8799 6.45469 16.3219M10.8141 10.3688C10.9078 10.6031 10.8141 10.8375 10.2984 11.4094C10.0172 11.6906 10.1109 11.7844 10.6078 12.4875C11.1047 13.1906 11.9203 13.8469 12.6703 14.1985C13.4203 14.55 13.3734 14.5266 13.6875 14.1516C14.3906 13.3547 14.2031 13.1672 14.9062 13.486L16.1719 14.0953C16.5469 14.2828 16.5656 14.2828 16.5703 14.5172C16.575 14.7516 16.4906 15.361 16.2422 15.6235C15.9937 15.886 15.0703 16.786 13.4297 16.186C11.7891 15.586 10.6641 15.1078 8.78906 12.5766C6.91406 10.0453 8.71406 8.54533 8.95781 8.45158C9.20156 8.35783 9.28594 8.38126 9.75469 8.39064C9.87969 8.39064 9.98906 8.46876 10.0828 8.62501" fill="black"/>
</g>
<defs>
<clipPath id="clip0_10_111">
<rect width="24" height="24" fill="white" transform="translate(0 0.600006)"/>
</clipPath>
</defs>
</svg>
